<svg width="24" height="24" viewBox="0 0 24 24" fill="none" xmlns="http://www.w3.org/2000/svg">
<path d="M20.3644 12.7073C20.5519 12.5198 20.6572 12.2655 20.6572 12.0003C20.6572 11.7352 20.5519 11.4809 20.3644 11.2933L14.7074 5.63634C14.6152 5.54083 14.5048 5.46465 14.3828 5.41224C14.2608 5.35983 14.1296 5.33225 13.9968 5.33109C13.8641 5.32994 13.7324 5.35524 13.6095 5.40552C13.4866 5.4558 13.3749 5.53006 13.281 5.62395C13.1872 5.71784 13.1129 5.82949 13.0626 5.95239C13.0123 6.07528 12.987 6.20696 12.9882 6.33974C12.9893 6.47252 13.0169 6.60374 13.0693 6.72575C13.1217 6.84775 13.1979 6.9581 13.2934 7.05034L17.2434 11.0003L4.00044 11.0003C3.73522 11.0003 3.48087 11.1057 3.29333 11.2932C3.1058 11.4808 3.00044 11.7351 3.00044 12.0003C3.00044 12.2656 3.1058 12.5199 3.29333 12.7074C3.48087 12.895 3.73522 13.0003 4.00044 13.0003L17.2434 13.0003L13.2934 16.9503C13.1113 17.1389 13.0105 17.3915 13.0128 17.6537C13.015 17.9159 13.1202 18.1668 13.3056 18.3522C13.491 18.5376 13.7418 18.6427 14.004 18.645C14.2662 18.6473 14.5188 18.5465 14.7074 18.3643L20.3644 12.7073Z" fill="black"/>
</svg>
