<svg width="54" height="58" viewBox="0 0 54 58" fill="none" xmlns="http://www.w3.org/2000/svg">
<path d="M22.3074 58C29.7334 58 35.4324 53 41.9324 46.5C47.1834 41.249 53.9324 39.3891 53.9324 31.963C53.9324 24.5369 46.867 22 44.7314 14.0295C40.4324 1 30.5023 0 23.0762 0C15.6501 0 13.1837 3.74898 7.93268 9C2.68166 14.251 -2.06761 18.3953 0.932617 26.9175C3.1653 33.2595 -1.31888 39.249 3.93214 44.5C10.9326 50 14.8813 58 22.3074 58ZM24.9324 17.625C22.5174 17.625 20.5574 19.585 20.5574 22V22.3745C20.5574 23.0707 20.2808 23.7384 19.7885 24.2307C19.2962 24.7229 18.6285 24.9995 17.9324 24.9995C17.2362 24.9995 16.5685 24.7229 16.0762 24.2307C15.5839 23.7384 15.3074 23.0707 15.3074 22.3745V22C15.3074 19.4473 16.3214 16.9991 18.1264 15.1941C19.9315 13.3891 22.3796 12.375 24.9324 12.375H25.3384C27.2213 12.3759 29.0587 12.9533 30.6037 14.0295C32.1487 15.1058 33.3271 16.6293 33.9804 18.3953C34.6337 20.1612 34.7306 22.0848 34.2581 23.9075C33.7856 25.7301 32.7663 27.3644 31.3374 28.5905L28.6424 30.9005C28.3042 31.194 28.0326 31.5562 27.8455 31.963C27.6584 32.3698 27.5602 32.8118 27.5574 33.2595V35.125C27.5574 35.8212 27.2808 36.4889 26.7885 36.9812C26.2962 37.4734 25.6285 37.75 24.9324 37.75C24.2362 37.75 23.5685 37.4734 23.0762 36.9812C22.5839 36.4889 22.3074 35.8212 22.3074 35.125V33.2595C22.3074 30.82 23.3714 28.503 25.2229 26.9175L27.9214 24.6075C28.5371 24.0797 28.9764 23.376 29.1801 22.5911C29.3838 21.8061 29.3422 20.9776 29.0608 20.217C28.7795 19.4564 28.2719 18.8002 27.6064 18.3368C26.9408 17.8734 26.1493 17.625 25.3384 17.625H24.9324ZM28.4324 43C28.4324 43.9283 28.0636 44.8185 27.4072 45.4749C26.7508 46.1313 25.8606 46.5 24.9324 46.5C24.0041 46.5 23.1139 46.1313 22.4575 45.4749C21.8011 44.8185 21.4324 43.9283 21.4324 43C21.4324 42.0717 21.8011 41.1815 22.4575 40.5251C23.1139 39.8688 24.0041 39.5 24.9324 39.5C25.8606 39.5 26.7508 39.8688 27.4072 40.5251C28.0636 41.1815 28.4324 42.0717 28.4324 43Z" fill="url(#paint0_radial_216_71)"/>
<defs>
<radialGradient id="paint0_radial_216_71" cx="0" cy="0" r="1" gradientUnits="userSpaceOnUse" gradientTransform="translate(16.4326 4.49999) rotate(54.1839) scale(59.8101 90.9344)">
<stop stop-color="#BB97C4"/>
<stop offset="0.545542" stop-color="#A83636"/>
<stop offset="1" stop-color="#5A1D4D"/>
</radialGradient>
</defs>
</svg>
