<svg width="16" height="16" viewBox="0 0 16 16" fill="none" xmlns="http://www.w3.org/2000/svg">
<path d="M4.1955 14.8134C4.13352 14.7543 4.08436 14.6841 4.05081 14.6068C4.01727 14.5296 4 14.4468 4 14.3632C4 14.2796 4.01727 14.1967 4.05081 14.1195C4.08436 14.0423 4.13352 13.9721 4.1955 13.913L10.3905 7.99993L4.1955 2.08688C4.07042 1.96748 4.00015 1.80554 4.00015 1.63668C4.00015 1.46782 4.07042 1.30588 4.1955 1.18648C4.32058 1.06708 4.49022 1 4.6671 1C4.84399 1 5.01363 1.06708 5.13871 1.18648L11.8045 7.54973C11.8665 7.60882 11.9156 7.679 11.9492 7.75625C11.9827 7.8335 12 7.9163 12 7.99993C12 8.08355 11.9827 8.16635 11.9492 8.2436C11.9156 8.32085 11.8665 8.39103 11.8045 8.45013L5.13871 14.8134C5.0768 14.8725 5.00329 14.9195 4.92236 14.9515C4.84144 14.9835 4.7547 15 4.6671 15C4.57951 15 4.49277 14.9835 4.41184 14.9515C4.33092 14.9195 4.25741 14.8725 4.1955 14.8134Z" fill="#722021"/>
</svg>
