<svg width="75" height="75" viewBox="0 0 75 75" fill="none" xmlns="http://www.w3.org/2000/svg">
<g clip-path="url(#clip0_81_3637)">
<circle cx="37.5001" cy="37.5" r="28.3537" fill="white"/>
<path d="M37.5 2L40.5311 10.25H34.4689L37.5 2Z" fill="white"/>
<path d="M12.5723 12.3735L20.3946 16.3812L15.9392 20.4922L12.5723 12.3735Z" fill="white"/>
<path d="M2 37.5L10.25 34.4689L10.25 40.5311L2 37.5Z" fill="white"/>
<path d="M12.4753 63.253L16.1656 55.2761L20.4523 59.5627L12.4753 63.253Z" fill="white"/>
<path d="M37.5 74L34.4689 65.75L40.5311 65.75L37.5 74Z" fill="white"/>
<path d="M63.2527 63.2531L55.2757 59.5627L59.5623 55.2761L63.2527 63.2531Z" fill="white"/>
<path d="M73 37.5L64.75 40.5311L64.75 34.4689L73 37.5Z" fill="white"/>
<path d="M63.2532 11.4749L59.5629 19.4518L55.2763 15.1652L63.2532 11.4749Z" fill="white"/>
<path d="M37.4589 -0.129011C36.9024 -0.132011 36.5971 0.247489 36.5116 0.691489L34.2129 8.44499C28.7409 9.05773 23.5552 11.2103 19.2579 14.6527C16.8706 13.3567 14.4841 12.0547 12.0954 10.7655C11.6529 10.527 11.2659 10.5457 10.9074 10.9057C10.5489 11.2657 10.6509 11.796 10.8534 12.1785L14.6806 19.2285C11.2207 23.5316 9.05647 28.7302 8.4406 34.2172C5.8306 34.9912 3.21685 35.7585 0.6106 36.5377C0.1306 36.6817 -0.1304 36.9682 -0.1289 37.4767C-0.1274 37.9845 0.31885 38.2882 0.73285 38.4157L8.4361 40.698C9.03462 46.1969 11.188 51.4113 14.6439 55.7302C13.3411 58.1317 12.0309 60.5317 10.7341 62.934C10.4964 63.3765 10.5151 63.762 10.8751 64.1205C11.2351 64.479 11.7654 64.3785 12.1479 64.176L19.2376 60.3285C23.5389 63.7828 28.7336 65.9432 34.2159 66.558C34.9899 69.168 35.7586 71.7825 36.5379 74.3895C36.6819 74.8695 36.9684 75.1305 37.4769 75.129C37.9846 75.1275 38.2884 74.6812 38.4159 74.2672L40.6981 66.564C46.2095 65.9636 51.4341 63.7989 55.7551 60.3255L62.8741 64.191C63.3909 64.4535 63.7396 64.5 64.1356 64.1085C64.5309 63.7177 64.4791 63.2325 64.2256 62.8582L60.3504 55.7152C63.7986 51.4003 65.9489 46.1939 66.5506 40.7032L74.2959 38.4082C74.8464 38.229 75.1261 38.0152 75.1284 37.4587C75.1321 36.9022 74.7526 36.597 74.3086 36.5115L66.5289 34.2052C65.9144 28.729 63.7592 23.5394 60.3136 19.239L64.1604 12.1537C64.4229 11.6377 64.4694 11.2882 64.0779 10.8922C63.6249 10.4985 63.2446 10.617 62.8276 10.803L55.7289 14.6572C51.4139 11.1924 46.1991 9.03199 40.6981 8.42999L38.4076 0.704989C38.2284 0.153739 38.0154 -0.126011 37.4589 -0.129011ZM37.4566 3.79949V33C36.6961 33.0073 35.9499 33.2073 35.2876 33.5812L30.6046 27.6472L37.4566 3.79949ZM41.3941 10.7827C45.8138 11.422 50.0043 13.1535 53.5861 15.8205L44.3694 20.823L41.3941 10.7827ZM33.5139 10.806L30.5559 20.7847C27.5064 19.1265 24.4561 17.4757 21.4059 15.819C24.9656 13.1737 29.1253 11.4514 33.5131 10.806M13.6524 13.6522L28.3284 28.3005L28.3209 28.323L22.7139 29.985L13.6524 13.6522ZM46.6524 28.3147L46.5819 28.2952L44.9326 22.7302L61.2976 13.6702L46.6524 28.3147ZM59.1549 21.372C61.8143 24.9395 63.5455 29.1121 64.1926 33.5145L54.1756 30.5445L59.1549 21.372ZM15.8454 21.3795L20.8216 30.5467L10.7956 33.5182C11.4469 29.116 13.1822 24.9447 15.8454 21.3795ZM47.2576 30.579L71.1991 37.4572H42.0001C41.9927 36.6886 41.7884 35.9346 41.4069 35.2672L47.2576 30.579ZM33.0001 37.4572V37.5C33.0003 38.2506 33.1882 38.9893 33.5469 39.6487L27.6226 44.3115L21.7516 42.63L3.7546 37.4767L33.0001 37.4572ZM64.2174 41.3932C63.5783 45.809 61.849 49.9959 59.1856 53.5755L54.1876 44.3655L64.2174 41.3932ZM10.7934 41.3962L20.8096 44.364C19.1394 47.436 17.4774 50.5087 15.8086 53.5815C13.1507 49.9994 11.427 45.8115 10.7934 41.3962ZM39.6706 41.4405L44.3364 47.283L42.6399 53.2057L37.4754 71.2455L37.4559 41.9985C38.2486 42 39.0706 41.793 39.6706 41.4405ZM52.2789 44.931L61.3569 61.3297L46.6321 46.605L52.2789 44.931ZM28.3141 46.6537L29.9866 52.2952L13.6201 61.3755L28.3141 46.6537ZM44.3761 54.1477L53.6146 59.1652C50.025 61.8373 45.8245 63.5698 41.3949 64.2052L44.3761 54.1477ZM30.5476 54.1875C31.5354 57.528 32.5291 60.8632 33.5176 64.203C29.1199 63.5519 24.9528 61.819 21.3901 59.16L30.5476 54.1875Z" fill="#4B4B4B"/>
</g>
<defs>
<clipPath id="clip0_81_3637">
<rect width="75" height="75" fill="white"/>
</clipPath>
</defs>
</svg>
