<svg width="1304" height="736" viewBox="0 0 1304 736" fill="none" xmlns="http://www.w3.org/2000/svg">
<path d="M910.997 136C866.087 215.839 715 259 647.5 208.5C603.16 175.327 566.5 171 588.497 229C610.672 287.468 623.872 444.819 541.497 415.5C452.995 384 601.5 -24.5 429.495 68.9996C387.453 91.8529 439.809 114.886 463.995 152C522.319 241.5 255 152 86.4973 275.5C-15.2372 350.064 -18.2131 568.846 35.9962 559.5C137.499 542 161.994 621 161.994 679.5C161.994 738 198.498 741 223.496 731.5C271.784 713.148 425.497 514 624.996 580C777.853 630.569 927.211 404.063 930.995 357C935.497 301 872.996 299.5 901.496 252.5C918.593 224.305 959.565 245.804 1044 365C1129 485 1214.11 459.343 1208.49 378.5C1199.5 249 1376.5 155.5 1267.99 31.4996C1178.32 -70.9839 1024.87 113.549 1008.99 182.5C989.997 265 953.497 240 941.495 205.5C932.788 180.471 978.558 143.034 982.997 127.5C989.997 103 964.997 40 910.997 136Z" stroke="#F2C6C6" stroke-width="0.5" stroke-dasharray="2 2"/>
</svg>
