<svg width="1304" height="735" viewBox="0 0 1304 735" fill="none" xmlns="http://www.w3.org/2000/svg">
<path d="M910.225 135.072C865.315 214.911 714.229 258.072 646.729 207.572C602.388 174.399 565.729 170.072 587.726 228.072C609.901 286.54 623.101 443.891 540.726 414.572C452.223 383.072 600.729 -25.4285 428.723 68.0711C386.681 90.9244 439.038 113.958 463.223 151.071C521.548 240.572 254.229 151.071 85.7259 274.572C-16.0087 349.136 -18.9845 567.917 35.2248 558.571C136.727 541.071 161.223 620.071 161.223 678.571C161.223 737.071 197.727 740.071 222.725 730.571C271.013 712.22 424.725 513.071 624.225 579.071C777.082 629.64 926.44 403.134 930.223 356.071C934.725 300.071 872.225 298.571 900.725 251.571C917.822 223.376 965.797 243.876 1050.23 363.072C1135.23 483.072 1220.85 458.915 1215.23 378.072C1206.23 248.572 1375.72 154.571 1267.22 30.5711C1177.55 -71.9123 1024.1 112.621 1008.22 181.571C989.225 264.072 952.725 239.072 940.723 204.571C932.016 179.542 977.787 142.105 982.225 126.572C989.225 102.072 964.225 39.0715 910.225 135.072Z" stroke="#ED2424" stroke-width="0.5" stroke-dasharray="2 2"/>
</svg>
