<svg width="1306" height="736" viewBox="0 0 1306 736" fill="none" xmlns="http://www.w3.org/2000/svg">
<path d="M912.999 136C868.089 215.839 722.499 136 650.498 211.5C569.436 296.5 626.999 416.5 550.498 413C488.031 410.142 563.998 310 591.498 227C619.491 142.511 516.97 -6.18471 431.497 68.9996C377.497 116.5 460.305 108.206 465.997 152C484 290.5 243.96 184.92 88.5 275.5C-20.4838 339 -16.2104 568.846 37.9989 559.5C139.501 542 163.997 621 163.997 679.5C163.997 738 200.501 741 225.499 731.5C273.787 713.148 427.499 514 626.999 580C779.856 630.569 929.214 404.063 932.997 357C937.499 301 874.999 299.5 903.499 252.5C920.596 224.305 961.567 245.804 1046 365C1131 485 1216.12 459.343 1210.5 378.5C1201.5 249 1378.5 155.5 1270 31.4996C1180.32 -70.9839 1026.87 113.549 1011 182.5C991.999 265 955.499 240 943.497 205.5C934.79 180.471 980.561 143.034 984.999 127.5C991.999 103 966.999 40 912.999 136Z" stroke="#E40000" stroke-width="0.7" stroke-dasharray="3 3"/>
</svg>
