<svg width="24" height="24" viewBox="0 0 24 24" fill="none" xmlns="http://www.w3.org/2000/svg">
<g clip-path="url(#clip0_39_2)">
<path d="M3.63556 11.2927C3.44809 11.4802 3.34277 11.7345 3.34277 11.9997C3.34277 12.2648 3.44809 12.5191 3.63556 12.7067L9.29256 18.3637C9.38481 18.4592 9.49515 18.5353 9.61716 18.5878C9.73916 18.6402 9.87038 18.6678 10.0032 18.6689C10.1359 18.6701 10.2676 18.6448 10.3905 18.5945C10.5134 18.5442 10.6251 18.4699 10.719 18.3761C10.8128 18.2822 10.8871 18.1705 10.9374 18.0476C10.9877 17.9247 11.013 17.793 11.0118 17.6603C11.0107 17.5275 10.9831 17.3963 10.9307 17.2743C10.8783 17.1522 10.8021 17.0419 10.7066 16.9497L6.75656 12.9997L19.9996 12.9997C20.2648 12.9997 20.5191 12.8943 20.7067 12.7068C20.8942 12.5192 20.9996 12.2649 20.9996 11.9997C20.9996 11.7344 20.8942 11.4801 20.7067 11.2926C20.5191 11.105 20.2648 10.9997 19.9996 10.9997L6.75656 10.9997L10.7066 7.04966C10.8887 6.86105 10.9895 6.60845 10.9872 6.34626C10.985 6.08406 10.8798 5.83325 10.6944 5.64784C10.509 5.46243 10.2582 5.35726 9.99596 5.35498C9.73376 5.3527 9.48116 5.4535 9.29256 5.63566L3.63556 11.2927Z" fill="black"/>
</g>
<defs>
<clipPath id="clip0_39_2">
<rect width="24" height="24" fill="white" transform="translate(0 24) rotate(-90)"/>
</clipPath>
</defs>
</svg>
